<?xml version="1.0" encoding="utf-8"?>
<!-- Generator: Adobe Illustrator 23.0.1, SVG Export Plug-In . SVG Version: 6.00 Build 0)  -->
<svg version="1.1" id="Layer_1" xmlns="http://www.w3.org/2000/svg" xmlns:xlink="http://www.w3.org/1999/xlink" x="0px" y="0px"
	 viewBox="0 0 150 30" style="enable-background:new 0 0 150 30;" xml:space="preserve">
<style type="text/css">
	.st0{fill-rule:evenodd;clip-rule:evenodd;fill:#ED1C24;}
	.st1{fill-rule:evenodd;clip-rule:evenodd;fill:#2E3192;}
	.st2{fill:#2E3192;}
</style>
<title>logo hãng</title>
<path class="st0" d="M28.94,4.19L40.24,12c-1.77,1.06-3.78,1.67-5.84,1.76c-1.4,0-2.31-0.57-4.4-1.93s-3-2.12-3.25-2.28
	c-0.43-0.32-1,0.16-0.57,0.54s13.91,9.39,13.91,9.39c-4.06,1.62-7.83,3.89-11.17,6.71l-11.29-7.81c1.77-1.06,3.78-1.67,5.84-1.76
	c1.38,0,2.31,0.54,4.37,1.93s3,2.12,3.24,2.28c0.44,0.32,1-0.16,0.58-0.54S17.75,10.9,17.75,10.9C21.82,9.28,25.59,7.01,28.94,4.19z
	"/>
<path class="st1" d="M51.14,18.69c0,0.2,0.27,1.39,2.3,1.39c1.5,0,1.88-0.48,1.88-0.88c0-2.31-10,0-10-5.28
	c0-3.23,3.63-4.37,7.43-4.37c8.44,0,7.87,4.13,7.87,4.13h-6c0-0.76-1.13-1.4-1.91-1.4s-2.16,0-2.16,0.91
	c0,1.84,10.52,0.49,10.52,5.42c0,1.71-0.92,4.31-8.14,4.31c-8.82,0-7.93-4.23-7.93-4.23H51.14z"/>
<rect x="127.81" y="9.74" class="st2" width="4.56" height="12.67"/>
<polygon class="st1" points="110.35,22.42 110.35,9.74 114.84,9.74 114.84,14.49 120.3,9.74 126.73,9.74 119.61,15.64 126.68,22.42 
	120.22,22.42 114.84,17.51 114.84,22.42 "/>
<polygon class="st1" points="85.42,19.29 92.91,19.29 92.91,22.42 77.89,22.42 77.89,19.79 85.38,13.02 78.17,13.02 78.17,9.74 
	92.88,9.74 92.88,12.52 "/>
<path class="st1" d="M61.52,9.74h5v7.86c0,1.58,1.42,2.26,2.84,2.26s2.83-0.68,2.83-2.26c0-2.6,0-7.86,0-7.86H77v8.72
	c0,3.75-4.3,4.17-7.72,4.17s-7.72-0.42-7.72-4.17L61.52,9.74z"/>
<path class="st1" d="M93.77,9.74h5c0,0,0,5.32,0,7.86c0,1.58,1.43,2.26,2.84,2.26s2.83-0.68,2.83-2.26V9.74h4.79v8.72
	c0,3.75-4.3,4.17-7.72,4.17s-7.72-0.42-7.72-4.17L93.77,9.74z"/>
</svg>
