<svg id="Layer_1" data-name="Layer 1" xmlns="http://www.w3.org/2000/svg" xmlns:xlink="http://www.w3.org/1999/xlink" viewBox="0 0 133.91 30"><defs><style>.cls-1{fill:none;}.cls-2{fill:#00377c;}.cls-3,.cls-4{fill:#ec1b2e;}.cls-4{stroke:#ec1b2e;}.cls-4,.cls-5{stroke-width:0.04px;}.cls-5{fill:#3e484e;stroke:#3e484e;}.cls-6{clip-path:url(#clip-path);}.cls-7{fill:url(#radial-gradient);}.cls-8{clip-path:url(#clip-path-2);}.cls-9{fill:url(#radial-gradient-2);}.cls-10{clip-path:url(#clip-path-3);}.cls-11{fill:url(#radial-gradient-3);}.cls-12{clip-path:url(#clip-path-4);}.cls-13{fill:url(#radial-gradient-4);}.cls-14{clip-path:url(#clip-path-5);}.cls-15{fill:url(#radial-gradient-5);}</style><clipPath id="clip-path"><path class="cls-1" d="M31.55,8.22a8.24,8.24,0,1,1,4.74,15.43l2-3.39A5.55,5.55,0,0,0,35.54,9.89a5.4,5.4,0,0,0-2.61.65Z"/></clipPath><radialGradient id="radial-gradient" cx="-2425.92" cy="2971.64" r="14.82" gradientTransform="translate(-1312.02 -4340.31) rotate(-56.31) scale(1.19)" gradientUnits="userSpaceOnUse"><stop offset="0" stop-color="#fff"/><stop offset="0.23" stop-color="#fdfdfd"/><stop offset="0.33" stop-color="#f6f6f7"/><stop offset="0.41" stop-color="#e9ebec"/><stop offset="0.47" stop-color="#d8dadc"/><stop offset="0.52" stop-color="#c1c5c8"/><stop offset="0.55" stop-color="#b1b6ba"/><stop offset="0.7" stop-color="#66737a"/><stop offset="0.78" stop-color="#68757c"/><stop offset="0.81" stop-color="#6f7b82"/><stop offset="0.84" stop-color="#7b868d"/><stop offset="0.85" stop-color="#848e94"/></radialGradient><clipPath id="clip-path-2"><path class="cls-1" d="M34.27,23.57,35.81,21h-.23a5.55,5.55,0,0,1-4.38-9L29.78,9.57h0a8.25,8.25,0,0,0,4.51,14"/></clipPath><radialGradient id="radial-gradient-2" cx="3540.95" cy="-1273.19" r="67.19" gradientTransform="matrix(0.29, 0, 0, -0.29, -993.19, -347.09)" gradientUnits="userSpaceOnUse"><stop offset="0.38" stop-color="#fff"/><stop offset="0.83" stop-color="#3e4c53"/><stop offset="1" stop-color="#959b9f"/></radialGradient><clipPath id="clip-path-3"><path class="cls-1" d="M39.14,15.34l-3.07-5.26a2.36,2.36,0,0,1-.19-2.19c.58-.88,3.44,0,4.79,1a8.3,8.3,0,0,0-9.2-.66l4.09,7.06-2.88,4.84c-1.69,2.38-4.37-.88-4.37-.88a8.06,8.06,0,0,0,1.45,1.94,8.14,8.14,0,0,0,4.51,2.31Z"/></clipPath><radialGradient id="radial-gradient-3" cx="614.24" cy="1193.76" r="17.65" gradientTransform="matrix(0.66, 1, 1, -0.66, -1569.92, 188.39)" gradientUnits="userSpaceOnUse"><stop offset="0.06" stop-color="#fff"/><stop offset="0.13" stop-color="#fbfbfb"/><stop offset="0.21" stop-color="#eef0f1"/><stop offset="0.28" stop-color="#dadddf"/><stop offset="0.36" stop-color="#bdc2c5"/><stop offset="0.43" stop-color="#98a0a5"/><stop offset="0.47" stop-color="#848e94"/><stop offset="0.61" stop-color="#525c62"/><stop offset="0.64" stop-color="#475157"/></radialGradient><clipPath id="clip-path-4"><path class="cls-1" d="M35.58,26.36A10.94,10.94,0,1,1,46.52,15.42v0A10.93,10.93,0,0,1,35.59,26.36ZM28.26,8.12a10.36,10.36,0,1,0,7.37-3A10.34,10.34,0,0,0,28.26,8.12Z"/></clipPath><radialGradient id="radial-gradient-4" cx="613.26" cy="1192.93" r="20.26" gradientTransform="matrix(0.66, 1, 1, -0.66, -1569.92, 188.39)" gradientUnits="userSpaceOnUse"><stop offset="0" stop-color="#fff"/><stop offset="0.07" stop-color="#f9fafa"/><stop offset="0.17" stop-color="#e9ebec"/><stop offset="0.28" stop-color="#ced2d4"/><stop offset="0.4" stop-color="#a8afb4"/><stop offset="0.5" stop-color="#848e94"/><stop offset="0.72" stop-color="#475157"/><stop offset="0.86" stop-color="#848e94"/></radialGradient><clipPath id="clip-path-5"><path class="cls-1" d="M35.58,5.25a10.13,10.13,0,1,1-7.19,3h0A10.07,10.07,0,0,1,35.58,5.25ZM28.8,8.65h0a9.6,9.6,0,1,0,6.78-2.81A9.43,9.43,0,0,0,28.8,8.65Z"/></clipPath><radialGradient id="radial-gradient-5" cx="-2301.98" cy="-663.24" r="20.69" gradientTransform="matrix(0.66, 1, 1, -0.66, 2220.83, 1871.66)" gradientUnits="userSpaceOnUse"><stop offset="0" stop-color="#f5f5f6"/><stop offset="0.09" stop-color="#f1f1f2"/><stop offset="0.18" stop-color="#e4e6e8"/><stop offset="0.27" stop-color="#d0d3d6"/><stop offset="0.36" stop-color="#b3b8bc"/><stop offset="0.45" stop-color="#8e979c"/><stop offset="0.47" stop-color="#848e94"/><stop offset="0.56" stop-color="#727c82"/><stop offset="0.72" stop-color="#475157"/></radialGradient></defs><title>1</title><path class="cls-2" d="M89.7,23l4.46-6.73v6.7h4V9.08H96.07a3,3,0,0,0-2.39,1.3h0c-.63.88-4.13,6.07-4.13,6.07V9.05H87.47c-.21,0-.42,0-.64,0a3,3,0,0,0-1.55.87l-.09.09a8.79,8.79,0,0,0-.94,1.24l-7.82,11.6h5L86,16.21v6.67Z"/><path class="cls-2" d="M65,16.33c-.1-.09-.22-.14-.34-.23L60.5,13.74a.33.33,0,0,1-.15-.28.3.3,0,0,1,.3-.32h6.61L64.57,9.08H60a5.08,5.08,0,0,0-.67.07,4.45,4.45,0,0,0-2.1.91l-.22.18a4.18,4.18,0,0,0-1.3,3,3.9,3.9,0,0,0,1.68,3.1h0l.31.22,3,1.71a.29.29,0,0,1,.19.29.32.32,0,0,1-.31.32H55.31l-2.75,4.07h10a3.79,3.79,0,0,0,3.8-3.74A3.51,3.51,0,0,0,65,16.33Z"/><path class="cls-2" d="M76.83,10.19a3.36,3.36,0,0,1,.81-.91,1.76,1.76,0,0,1,.9-.24H82.8a3.58,3.58,0,0,0-.43.44c-.17.2-.43.58-.43.58L71.93,25h-5.1Z"/><polygon class="cls-3" points="66.37 9.08 70.96 15.91 66.25 22.93 70.69 22.93 75.4 15.91 70.78 9.08 66.37 9.08"/><path class="cls-4" d="M28.8,8.65h0a9.6,9.6,0,1,0,6.78-2.81A9.43,9.43,0,0,0,28.8,8.65Z"/><path class="cls-5" d="M36.57,23.61a8.08,8.08,0,0,0,5.06-2.35,8.29,8.29,0,0,0-10-13L33,10.58a5.56,5.56,0,0,1,6.68,8.75,5.32,5.32,0,0,1-1.17.89Z"/><g class="cls-6"><rect class="cls-7" x="27.15" y="6.96" width="17.05" height="16.77"/></g><path class="cls-5" d="M32.91,20.17a5.22,5.22,0,0,1-1.06-.81A5.57,5.57,0,0,1,31.4,12L30,9.54h-.22a8.25,8.25,0,0,0,4.51,14h.22l4.87-8.23L36.28,10a2.3,2.3,0,0,1-.17-2.19c.56-.87,3.42,0,4.77,1.06a8.15,8.15,0,0,0-5.12-1.69,8.27,8.27,0,0,0-4.12,1.06l4.12,7.09-2.88,4.84"/><g class="cls-8"><rect class="cls-9" x="26.99" y="6.96" width="17.2" height="16.92"/></g><g class="cls-10"><rect class="cls-11" x="27.78" y="6.86" width="13.4" height="16.75"/></g><g class="cls-12"><rect class="cls-13" x="23.84" y="3.56" width="23.49" height="23.44"/></g><g class="cls-14"><rect class="cls-15" x="20.87" y="1.81" width="28.14" height="26.77" transform="translate(8.37 42.5) rotate(-69.3)"/></g></svg>